<svg xmlns="http://www.w3.org/2000/svg" xmlns:svgjs="http://svgjs.com/svgjs" xmlns:xlink="http://www.w3.org/1999/xlink" viewBox="28.97 52.52 230.07 182.97"><svg xmlns="http://www.w3.org/2000/svg" width="288" height="288" version="1.0" viewBox="0 0 159 133"><g fill="#fff" class="color000 svgShape" transform="matrix(.1 0 0 -.1 0 133)"><path d="M160 665 l0 -505 635 0 635 0 0 505 0 505 -635 0 -635 0 0 -505zm1260 -5 l0 -490 -625 0 -625 0 0 490 0 490 625 0 625 0 0 -490z" class="color000 svgShape"/><path d="M489 981c-49-49-38-125 23-157 62-32 133 7 145 79 5 32 1 41-30 72-46 46-95 49-138 6zM750 910l0-90 161-2c141-3 163-5 173-21 8-12 8-22 0-35-10-15-32-17-173-20l-161-2 0-215 0-215 110 0 110 0 0 119 0 118 83 6c109 8 171 31 222 81 84 85 86 215 4 297-60 60-104 69-331 69l-198 0 0-90zM421 723c-11-23-171-403-171-409 0-3 53-3 117-2l117 3 88 209c48 115 88 211 88 213 0 2-52 3-115 3-99 0-116-2-124-17z" class="color000 svgShape"/></g></svg></svg>